<svg width="40" height="47" viewBox="0 0 40 47" fill="none" xmlns="http://www.w3.org/2000/svg">
<g style="mix-blend-mode:luminosity" filter="url(#filter0_i)">
<path fill-rule="evenodd" clip-rule="evenodd" d="M31.1089 9.44368C33.5464 12.055 35.6034 14.8297 36.8422 17.6044C41.0526 26.4066 41.0526 35.2087 36.8422 39.6098C33.1213 43.499 26.1127 43.9514 21.627 41.5452C21.6424 41.6314 21.6515 41.7197 21.6539 41.8098L21.792 47H18.448L18.31 41.8098C18.3078 41.7297 18.3112 41.6508 18.3197 41.5736C13.8321 43.9478 6.86398 43.4836 3.15804 39.6098C-1.05268 35.2087 -1.05268 26.4066 3.15804 17.6044C6.10535 11.0027 13.6842 4.40109 20 0C22.0065 1.39822 24.1405 3.01855 26.213 4.79043C24.8166 5.31889 23.8283 6.6266 23.8283 8.15611C23.8283 10.1531 25.5131 11.7721 27.5914 11.7721C29.1977 11.7721 30.5689 10.805 31.1089 9.44368Z" fill="url(#paint0_linear)" fill-opacity="0.27"/>
</g>
<defs>
<filter id="filter0_i" x="0" y="0" width="44" height="49" filterUnits="userSpaceOnUse" color-interpolation-filters="sRGB">
<feFlood flood-opacity="0" result="BackgroundImageFix"/>
<feBlend mode="normal" in="SourceGraphic" in2="BackgroundImageFix" result="shape"/>
<feColorMatrix in="SourceAlpha" type="matrix" values="0 0 0 0 0 0 0 0 0 0 0 0 0 0 0 0 0 0 127 0" result="hardAlpha"/>
<feOffset dx="4" dy="2"/>
<feGaussianBlur stdDeviation="3"/>
<feComposite in2="hardAlpha" operator="arithmetic" k2="-1" k3="1"/>
<feColorMatrix type="matrix" values="0 0 0 0 0 0 0 0 0 0 0 0 0 0 0 0 0 0 0.31 0"/>
<feBlend mode="normal" in2="shape" result="effect1_innerShadow"/>
</filter>
<linearGradient id="paint0_linear" x1="20" y1="0" x2="20" y2="47" gradientUnits="userSpaceOnUse">
<stop/>
<stop offset="1" stop-color="white"/>
</linearGradient>
</defs>
</svg>
