<?xml version="1.0" encoding="UTF-8"?>
<svg width="1069px" height="380px" viewBox="0 0 1069 380" version="1.1" xmlns="http://www.w3.org/2000/svg" xmlns:xlink="http://www.w3.org/1999/xlink">
    <title>Group</title>
    <g id="Page-2" stroke="none" stroke-width="1" fill="none" fill-rule="evenodd">
        <g id="Group">
            <g id="Group-2">
                <polygon id="Triangle" fill-opacity="0.57" fill="#6A41FB" points="953.5 119 1069 294 951.109375 294 838 294"></polygon>
                <path d="M43.42,379.17 C53.44,379.17 53.44,371.488 53.44,357.794 C53.44,334.46744 53.1257394,282.857426 53.1068838,271.856167 L53.106844,269.746106 C53.1138072,266.672749 53.1782162,265.61 53.774,265.61 C54.442,265.61 55.444,267.28 57.448,269.618 C70.808,285.984 90.514,294 110.22,294 C153.64,294 186.038,262.604 186.038,214.842 C186.038,167.748 153.64,135.016 110.22,135.016 C87.508,135.016 68.136,145.036 56.446,160.734 C55.11,162.404 54.442,163.406 53.774,163.406 C53.106,163.406 53.106,162.07 53.106,160.066 C53.106,157.06 53.44,151.048 53.44,147.374 C53.44,140.694 48.096,137.354 43.086,137.354 C38.076,137.354 33.4,140.694 33.4,148.042 L33.4,148.376 C33.734,165.076 34.068,201.482 34.068,241.228 C34.068,289.324 33.734,341.762 33.4,367.48 L33.4,367.814 C33.4,375.496 38.41,379.17 43.42,379.17 Z M109.552,276.298 C77.822,276.298 52.772,252.25 52.772,214.842 C52.772,177.434 77.822,152.718 109.552,152.718 C141.282,152.718 166.332,177.434 166.332,214.842 C166.332,252.25 141.282,276.298 109.552,276.298 Z M245.49,292.664 C250.5,292.664 255.176,289.658 255.176,283.646 L255.176,283.312 C254.886533,269.128133 254.847938,255.446009 254.842792,243.135313 L254.842847,229.978304 C254.848211,214.450033 254.887545,201.967818 255.176,194.468 C255.844,168.75 282.23,153.72 305.944,153.72 C312.624,153.72 316.298,148.71 316.298,144.034 C316.298,139.358 312.958,135.016 305.944,135.016 C301.936,135.016 271.876,137.02 257.18,157.394 C256.846,158.062 256.178,158.73 255.844,158.73 C255.844,158.73 255.51,158.062 255.51,157.06 C255.51,152.384 255.844,150.046 255.844,145.036 C255.844,138.69 250.834,135.684 245.824,135.684 C240.814,135.684 235.47,139.024 235.47,144.368 L235.47,144.702 C235.804,159.398 236.138,177.1 236.138,195.804 C236.138,224.528 235.47,255.924 234.802,282.978 L234.802,283.312 C234.802,289.324 240.146,292.664 245.49,292.664 Z M370.406,77.568 C378.756,77.568 387.106,71.556 387.106,61.202 C387.106,48.51 375.75,45.838 370.74,45.838 C364.06,45.838 354.708,50.848 354.708,61.202 C354.708,63.206 354.708,77.568 370.406,77.568 Z M370.74,292.33 C376.084,292.33 381.428,288.99 381.428,282.31 L381.428,281.976 C381.100423,263.631692 380.772846,239.504392 380.760368,216.211177 L380.760989,212.125154 C380.781095,184.401555 381.104547,158.287011 381.428,144.702 L381.428,144.368 C381.428,138.356 376.084,135.35 371.074,135.35 C365.73,135.35 360.386,138.69 360.386,144.702 L360.386,145.036 C360.674157,153.104392 360.713708,164.404661 360.719136,177.435423 L360.72,183.78 C360.72,214.842 360.386,253.92 360.386,282.31 C360.386,288.99 365.73,292.33 370.74,292.33 Z M486.972,294.668 C524.38,294.668 540.078,270.62 540.078,251.582 C540.078,236.218 531.06,220.52 510.352,209.832 C499.998,204.488 484.634,198.142 475.282,193.8 C464.26,188.456 458.916,180.106 458.916,172.09 C458.916,161.068 468.602,151.048 485.636,151.048 C499.998,151.048 508.348,156.392 513.692,162.738 C516.364,166.078 519.704,167.414 522.376,167.414 C527.72,167.414 532.062,163.072 532.062,157.728 C532.062,148.71 514.026,134.348 485.636,134.348 C456.244,134.348 440.212,153.052 440.212,172.758 C440.212,187.12 448.896,201.816 467.266,209.832 C506.01,227.2 520.372,233.88 520.372,251.582 C520.372,265.944 506.01,276.632 486.972,276.632 C470.606,276.632 458.582,270.286 451.234,259.932 C448.896,256.926 445.89,255.59 442.884,255.59 C437.874,255.59 432.864,259.598 432.864,265.276 C432.864,274.628 452.236,294.668 486.972,294.668 Z M793.918,293.332 C798.594,293.332 803.604,289.658 803.604,282.31 L803.604,267.28 C803.604,241.228 803.27,198.81 802.936,184.782 C801.934,152.05 778.22,134.682 752.502,134.682 C733.13,134.682 713.09,144.368 700.398,164.074 C693.718,144.034 675.014,134.682 655.642,134.682 C638.608,134.682 620.572,142.03 609.884,155.724 C609.55,156.392 609.216,156.726 608.882,156.726 C608.587294,156.726 608.552623,156.205931 608.548544,155.165792 L608.548,145.704 C608.548,139.358 603.872,136.352 599.196,136.352 C594.186,136.352 589.51,139.358 589.51,145.37 L589.51,145.704 C589.801179,156.477641 589.83851,169.78977 589.843296,183.869954 L589.844,190.126 C589.844,221.188 589.51,256.258 588.842,282.644 L588.842,282.978 C588.842,289.658 593.852,293.332 598.862,293.332 C603.538,293.332 608.214,289.992 608.214,283.312 L608.214,282.978 C607.88,267.948 607.546,242.898 607.546,222.524 C607.546,209.832 607.546,198.81 607.88,193.132 C608.882,168.416 631.928,151.382 652.97,151.382 C669.336,151.382 684.7,162.07 686.036,188.122 C686.37,193.8 686.37,207.494 686.37,223.192 C686.37,244.568 686.37,269.618 686.036,282.978 L686.036,283.312 C686.036,289.658 690.712,292.664 695.388,292.664 C700.398,292.664 705.408,289.324 705.408,283.312 L705.408,282.978 C705.080549,265.950549 704.753098,241.539399 704.740383,221.389771 L704.740728,215.471574 C704.745612,205.141224 704.783296,196.403963 705.074,191.462 C706.076,168.75 729.456,152.384 750.832,152.384 C767.198,152.384 782.562,162.404 783.898,188.122 C784.232,193.8 784.232,207.494 784.232,223.192 C784.232,244.568 784.232,269.618 783.898,282.978 L783.898,283.312 C783.898,289.658 788.908,293.332 793.918,293.332 Z" id="prism" fill="#B29DFD" fill-rule="nonzero"></path>
                <polygon id="Triangle" fill="#6A41FB" points="953.5 119 1069 294 953.5 294"></polygon>
            </g>
        </g>
    </g>
</svg>