<svg width="896" height="243" viewBox="0 0 896 243" fill="none" xmlns="http://www.w3.org/2000/svg">
<g opacity="0.75">
<path d="M175.5 213.4C175.5 219.1 180 222.4 184.5 222.4C188.7 222.4 193.2 219.1 193.2 212.5V199C193.2 175.6 192.9 137.5 192.6 124.9C191.7 95.5 170.4 79.9 147.3 79.9C129.9 79.9 111.9 88.6 100.5 106.3C94.5 88.3 77.7 79.9 60.3 79.9C45 79.9 28.8 86.5 19.2 98.8C18.9 99.4 18.6 99.7 18.3 99.7C18 99.7 18 99.1 18 97.9V89.8C18 84.1 13.8 81.4 9.59999 81.4C5.09999 81.4 0.899987 84.1 0.899987 89.5V89.8C1.19999 100.9 1.19999 115 1.19999 129.7C1.19999 157.6 0.899987 189.1 0.299988 212.8V213.1C0.299988 219.1 4.79999 222.4 9.29999 222.4C13.5 222.4 17.7 219.4 17.7 213.4V213.1C17.4 199.6 17.1 177.1 17.1 158.8C17.1 147.4 17.1 137.5 17.4 132.4C18.3 110.2 39 94.9 57.9 94.9C72.6 94.9 86.4 104.5 87.6 127.9C87.9 133 87.9 145.3 87.9 159.4C87.9 178.6 87.9 201.1 87.6 213.1V213.4C87.6 219.1 91.8 221.8 96 221.8C100.5 221.8 105 218.8 105 213.4V213.1C104.7 197.5 104.4 175 104.4 156.7C104.4 145.6 104.4 136 104.7 130.9C105.6 110.5 126.6 95.8 145.8 95.8C160.5 95.8 174.3 104.8 175.5 127.9C175.8 133 175.8 145.3 175.8 159.4C175.8 178.6 175.8 201.1 175.5 213.1V213.4Z" fill="#6A41FB"/>
<path d="M304.301 223.3C344.201 223.3 374.201 194.5 374.201 151.3C374.201 109.6 344.201 79.6 304.301 79.6C264.401 79.6 235.001 109.6 235.001 151.3C235.001 194.5 264.401 223.3 304.301 223.3ZM304.301 207.1C275.501 207.1 252.401 184.9 252.401 151.3C252.401 117.4 275.501 95.2 304.301 95.2C333.101 95.2 356.501 117.4 356.501 151.3C356.501 184.9 333.101 207.1 304.301 207.1Z" fill="#6A41FB"/>
<path d="M502.38 184.9C502.38 171.1 494.28 157 475.68 147.4C466.38 142.6 452.58 136.9 444.18 133C434.28 128.2 429.48 120.7 429.48 113.5C429.48 103.6 438.18 94.6 453.48 94.6C466.38 94.6 473.88 99.4 478.68 105.1C481.08 108.1 484.08 109.3 486.48 109.3C491.28 109.3 495.18 105.4 495.18 100.6C495.18 92.5 478.98 79.6 453.48 79.6C427.08 79.6 412.68 96.4 412.68 114.1C412.68 127 420.48 140.2 436.98 147.4C471.78 163 484.68 169 484.68 184.9C484.68 197.8 471.78 207.4 454.68 207.4C439.98 207.4 429.18 201.7 422.58 192.4C420.48 189.7 417.78 188.5 415.08 188.5C410.58 188.5 406.08 192.1 406.08 197.2C406.08 205.6 423.48 223.6 454.68 223.6C488.28 223.6 502.38 202 502.38 184.9Z" fill="#6A41FB"/>
<path d="M632.801 197.8C633.401 197.8 633.401 198.1 633.701 199C637.901 215.5 652.901 219.7 654.701 219.7C660.101 219.7 663.701 214.6 663.701 210.4C663.701 208 662.801 205.6 660.401 204.4C648.401 198.1 643.601 192.1 643.601 167.2C643.601 157.3 644.201 143.8 645.101 133.9C645.401 130.9 645.401 128.2 645.401 125.5C645.401 91.9 626.501 79.6 598.601 79.6C572.801 79.6 547.601 92.5 547.601 103.9C547.601 108.7 551.501 112 556.001 112C558.101 112 560.501 111.1 562.301 109C569.201 101.5 581.201 94.6 597.401 94.6C621.701 94.6 628.601 107.5 628.601 124C628.601 125.5 628.301 127.3 628.301 128.8C628.301 130.9 627.101 131.8 623.501 132.4C610.901 134.5 586.601 139 568.001 144.7C545.801 151.6 535.901 166.9 535.901 181.9C535.901 202.6 554.201 223.3 584.501 223.3C602.801 223.3 622.901 214 631.901 198.7C632.201 198.1 632.801 197.8 632.801 197.8ZM584.201 207.4C564.101 207.4 552.101 194.8 552.101 182.2C552.101 161.2 577.001 155.2 624.101 147.7H625.001C627.101 147.7 628.001 148.6 628.001 151C628.001 154.6 627.701 157.9 627.701 161.2C627.701 186.7 611.801 207.4 584.201 207.4Z" fill="#6A41FB"/>
<path d="M728.381 13.9C728.381 2.49998 718.181 0.0999756 713.681 0.0999756C707.681 0.0999756 699.281 4.59997 699.281 13.9C699.281 15.7 699.281 28.6 713.381 28.6C720.881 28.6 728.381 23.2 728.381 13.9ZM723.281 212.2C722.981 195.4 722.681 173.2 722.681 151.9C722.681 126.1 722.981 101.5 723.281 88.9V88.6C723.281 83.2 718.481 80.5 713.981 80.5C709.181 80.5 704.381 83.5 704.381 88.9V89.2C704.681 97.6 704.681 109.9 704.681 124C704.681 151.9 704.381 187 704.381 212.5C704.381 218.5 709.181 221.5 713.681 221.5C718.481 221.5 723.281 218.5 723.281 212.5V212.2Z" fill="#6A41FB"/>
<path d="M895.962 194.2C895.962 189.1 891.462 184.9 886.362 184.9C883.662 184.9 880.962 186.1 878.562 189.4C870.462 200.8 855.762 206.5 840.762 206.5C806.862 206.5 788.262 178.9 788.262 150.7C788.262 118.6 810.162 94.3 839.562 94.3C852.462 94.3 865.362 99.1 873.162 109C875.562 112 878.262 113.2 880.962 113.2C885.462 113.2 889.662 109.3 889.662 104.2C889.662 95.2 869.862 78.7 839.562 78.7C798.762 78.7 770.562 112.3 770.562 152.2C770.562 187.9 794.862 223 841.062 223C873.462 223 895.962 202.9 895.962 194.2Z" fill="#6A41FB"/>
<path d="M288.5 73.6395C295.616 69.531 304.384 69.531 311.5 73.6395L364.71 104.36C371.826 108.469 376.21 116.062 376.21 124.279V185.721C376.21 193.938 371.826 201.531 364.71 205.64L311.5 236.36C304.384 240.469 295.616 240.469 288.5 236.36L235.29 205.64C228.174 201.531 223.79 193.938 223.79 185.721V124.279C223.79 116.062 228.174 108.469 235.29 104.36L288.5 73.6395Z" fill="#6A41FB"/>
<path d="M364.71 104.36L307.5 71.3301C304.167 69.4056 300 71.8112 300 75.6602V234.34C300 238.189 304.167 240.594 307.5 238.67L364.71 205.64C371.826 201.531 376.21 193.938 376.21 185.721V124.279C376.21 116.062 371.826 108.469 364.71 104.36Z" fill="black" fill-opacity="0.26"/>
</g>
</svg>
