<?xml version="1.0" encoding="UTF-8"?>
<svg width="1691px" height="335px" viewBox="0 0 1691 335" version="1.1" xmlns="http://www.w3.org/2000/svg" xmlns:xlink="http://www.w3.org/1999/xlink">
    <title>Group 3</title>
    <g id="Page-1" stroke="none" stroke-width="1" fill="none" fill-rule="evenodd">
        <g id="Group-3" transform="translate(0.400000, 0.838000)" fill="#6A41FB">
            <path d="M10.02,333.332 C20.04,333.332 20.04,325.65 20.04,311.956 C20.04,288.62944 19.7257394,237.019426 19.7068838,226.018167 L19.706844,223.908106 C19.7138072,220.834749 19.7782162,219.772 20.374,219.772 C21.042,219.772 22.044,221.442 24.048,223.78 C37.408,240.146 57.114,248.162 76.82,248.162 C120.24,248.162 152.638,216.766 152.638,169.004 C152.638,121.91 120.24,89.178 76.82,89.178 C54.108,89.178 34.736,99.198 23.046,114.896 C21.71,116.566 21.042,117.568 20.374,117.568 C19.706,117.568 19.706,116.232 19.706,114.228 C19.706,111.222 20.04,105.21 20.04,101.536 C20.04,94.856 14.696,91.516 9.686,91.516 C4.676,91.516 0,94.856 0,102.204 L0,102.538 C0.334,119.238 0.668,155.644 0.668,195.39 C0.668,243.486 0.334,295.924 0,321.642 L0,321.976 C0,329.658 5.01,333.332 10.02,333.332 Z M76.152,230.46 C44.422,230.46 19.372,206.412 19.372,169.004 C19.372,131.596 44.422,106.88 76.152,106.88 C107.882,106.88 132.932,131.596 132.932,169.004 C132.932,206.412 107.882,230.46 76.152,230.46 Z M212.09,246.826 C217.1,246.826 221.776,243.82 221.776,237.808 L221.776,237.474 C221.486533,223.290133 221.447938,209.608009 221.442792,197.297313 L221.442847,184.140304 C221.448211,168.612033 221.487545,156.129818 221.776,148.63 C222.444,122.912 248.83,107.882 272.544,107.882 C279.224,107.882 282.898,102.872 282.898,98.196 C282.898,93.52 279.558,89.178 272.544,89.178 C268.536,89.178 238.476,91.182 223.78,111.556 C223.446,112.224 222.778,112.892 222.444,112.892 C222.444,112.892 222.11,112.224 222.11,111.222 C222.11,106.546 222.444,104.208 222.444,99.198 C222.444,92.852 217.434,89.846 212.424,89.846 C207.414,89.846 202.07,93.186 202.07,98.53 L202.07,98.864 C202.404,113.56 202.738,131.262 202.738,149.966 C202.738,178.69 202.07,210.086 201.402,237.14 L201.402,237.474 C201.402,243.486 206.746,246.826 212.09,246.826 Z M337.006,31.73 C345.356,31.73 353.706,25.718 353.706,15.364 C353.706,2.672 342.35,0 337.34,0 C330.66,0 321.308,5.01 321.308,15.364 C321.308,17.368 321.308,31.73 337.006,31.73 Z M337.34,246.492 C342.684,246.492 348.028,243.152 348.028,236.472 L348.028,236.138 C347.700423,217.793692 347.372846,193.666392 347.360368,170.373177 L347.360989,166.287154 C347.381095,138.563555 347.704547,112.449011 348.028,98.864 L348.028,98.53 C348.028,92.518 342.684,89.512 337.674,89.512 C332.33,89.512 326.986,92.852 326.986,98.864 L326.986,99.198 C327.274157,107.266392 327.313708,118.566661 327.319136,131.597423 L327.32,137.942 C327.32,169.004 326.986,208.082 326.986,236.472 C326.986,243.152 332.33,246.492 337.34,246.492 Z M453.572,248.83 C490.98,248.83 506.678,224.782 506.678,205.744 C506.678,190.38 497.66,174.682 476.952,163.994 C466.598,158.65 451.234,152.304 441.882,147.962 C430.86,142.618 425.516,134.268 425.516,126.252 C425.516,115.23 435.202,105.21 452.236,105.21 C466.598,105.21 474.948,110.554 480.292,116.9 C482.964,120.24 486.304,121.576 488.976,121.576 C494.32,121.576 498.662,117.234 498.662,111.89 C498.662,102.872 480.626,88.51 452.236,88.51 C422.844,88.51 406.812,107.214 406.812,126.92 C406.812,141.282 415.496,155.978 433.866,163.994 C472.61,181.362 486.972,188.042 486.972,205.744 C486.972,220.106 472.61,230.794 453.572,230.794 C437.206,230.794 425.182,224.448 417.834,214.094 C415.496,211.088 412.49,209.752 409.484,209.752 C404.474,209.752 399.464,213.76 399.464,219.438 C399.464,228.79 418.836,248.83 453.572,248.83 Z M760.518,247.494 C765.194,247.494 770.204,243.82 770.204,236.472 L770.204,221.442 C770.204,195.39 769.87,152.972 769.536,138.944 C768.534,106.212 744.82,88.844 719.102,88.844 C699.73,88.844 679.69,98.53 666.998,118.236 C660.318,98.196 641.614,88.844 622.242,88.844 C605.208,88.844 587.172,96.192 576.484,109.886 C576.15,110.554 575.816,110.888 575.482,110.888 C575.187294,110.888 575.152623,110.367931 575.148544,109.327792 L575.148,99.866 C575.148,93.52 570.472,90.514 565.796,90.514 C560.786,90.514 556.11,93.52 556.11,99.532 L556.11,99.866 C556.401179,110.639641 556.43851,123.95177 556.443296,138.031954 L556.444,144.288 C556.444,175.35 556.11,210.42 555.442,236.806 L555.442,237.14 C555.442,243.82 560.452,247.494 565.462,247.494 C570.138,247.494 574.814,244.154 574.814,237.474 L574.814,237.14 C574.48,222.11 574.146,197.06 574.146,176.686 C574.146,163.994 574.146,152.972 574.48,147.294 C575.482,122.578 598.528,105.544 619.57,105.544 C635.936,105.544 651.3,116.232 652.636,142.284 C652.97,147.962 652.97,161.656 652.97,177.354 C652.97,198.73 652.97,223.78 652.636,237.14 L652.636,237.474 C652.636,243.82 657.312,246.826 661.988,246.826 C666.998,246.826 672.008,243.486 672.008,237.474 L672.008,237.14 C671.680549,220.112549 671.353098,195.701399 671.340383,175.551771 L671.340728,169.633574 C671.345612,159.303224 671.383296,150.565963 671.674,145.624 C672.676,122.912 696.056,106.546 717.432,106.546 C733.798,106.546 749.162,116.566 750.498,142.284 C750.832,147.962 750.832,161.656 750.832,177.354 C750.832,198.73 750.832,223.78 750.498,237.14 L750.498,237.474 C750.498,243.82 755.508,247.494 760.518,247.494 Z" id="prism" fill-rule="nonzero"></path>
            <path d="M1118.794,248.162 C1154.866,248.162 1179.916,225.784 1179.916,216.098 C1179.916,210.42 1174.906,205.744 1169.228,205.744 C1166.222,205.744 1163.216,207.08 1160.544,210.754 C1151.526,223.446 1135.16,229.792 1118.46,229.792 C1080.718,229.792 1060.01,199.064 1060.01,167.668 C1060.01,131.93 1084.392,104.876 1117.124,104.876 C1131.486,104.876 1145.848,110.22 1154.532,121.242 C1157.204,124.582 1160.21,125.918 1163.216,125.918 C1168.226,125.918 1172.902,121.576 1172.902,115.898 C1172.902,105.878 1150.858,87.508 1117.124,87.508 C1071.7,87.508 1040.304,124.916 1040.304,169.338 C1040.304,209.084 1067.358,248.162 1118.794,248.162 Z M1287.464,248.496 C1331.886,248.496 1365.286,216.432 1365.286,168.336 C1365.286,121.91 1331.886,88.51 1287.464,88.51 C1243.042,88.51 1210.31,121.91 1210.31,168.336 C1210.31,216.432 1243.042,248.496 1287.464,248.496 Z M1287.464,230.46 C1255.4,230.46 1229.682,205.744 1229.682,168.336 C1229.682,130.594 1255.4,105.878 1287.464,105.878 C1319.528,105.878 1345.58,130.594 1345.58,168.336 C1345.58,205.744 1319.528,230.46 1287.464,230.46 Z M1425.072,246.826 C1430.082,246.826 1434.758,243.82 1434.758,237.808 L1434.758,237.474 C1434.424,221.108 1434.424,205.41 1434.424,191.716 C1434.424,172.678 1434.424,157.314 1434.758,148.63 C1435.426,122.912 1461.812,107.882 1485.526,107.882 C1492.206,107.882 1495.88,102.872 1495.88,98.196 C1495.88,93.52 1492.54,89.178 1485.526,89.178 C1481.518,89.178 1451.458,91.182 1436.762,111.556 C1436.428,112.224 1435.76,112.892 1435.426,112.892 C1435.426,112.892 1435.092,112.224 1435.092,111.222 C1435.092,106.546 1435.426,104.208 1435.426,99.198 C1435.426,92.852 1430.416,89.846 1425.406,89.846 C1420.396,89.846 1415.052,93.186 1415.052,98.53 L1415.052,98.864 C1415.386,113.56 1415.72,131.262 1415.72,149.966 C1415.72,178.69 1415.052,210.086 1414.384,237.14 L1414.384,237.474 C1414.384,243.486 1419.728,246.826 1425.072,246.826 Z M1600.422,247.828 C1622.466,247.828 1644.51,237.808 1658.872,216.432 C1660.208,214.762 1660.876,213.426 1661.21,213.426 C1661.878,213.426 1662.212,214.762 1662.88,218.436 C1663.882,224.782 1668.224,236.472 1669.894,239.478 C1672.232,243.486 1675.572,244.822 1678.912,244.822 C1684.256,244.822 1689.266,240.48 1689.266,234.802 C1689.266,232.798 1688.932,231.128 1687.93,229.124 C1676.7076,208.60304 1676.2587,205.627501 1676.24075,112.339217 L1676.2409,96.7234197 C1676.26034,59.3704372 1676.59404,25.95514 1677.242,12.024 L1677.242,11.356 C1677.242,4.676 1672.232,1.002 1666.888,1.002 C1663.548,1.002 1656.534,2.672 1656.868,11.69 C1657.19198,25.62114 1657.51596,68.4642552 1657.53511,107.602238 L1657.536,111.222 C1657.536,115.898 1657.202,117.568 1656.868,117.568 C1656.2,117.568 1654.864,115.898 1653.194,113.56 C1641.17,98.196 1621.798,88.844 1600.422,88.844 C1557.002,88.844 1524.27,121.242 1524.27,168.002 C1524.27,216.432 1557.002,247.828 1600.422,247.828 Z M1601.09,229.458 C1567.69,229.458 1544.31,206.078 1544.31,168.002 C1544.31,129.592 1567.356,106.212 1601.09,106.212 C1632.82,106.212 1657.536,130.594 1657.536,168.002 C1657.536,205.076 1632.486,229.458 1601.09,229.458 Z" id="cord" fill-rule="nonzero"></path>
            <g id="Group-2" transform="translate(794.600000, 73.162000)">
                <polygon id="Triangle" fill-opacity="0.57" points="115.5 0 231 175 113.109375 175 0 175"></polygon>
                <polygon id="Triangle" points="115.5 0 231 175 115.5 175"></polygon>
            </g>
        </g>
    </g>
</svg>