<?xml version="1.0" encoding="UTF-8"?>
<svg width="1709px" height="380px" viewBox="0 0 1709 380" version="1.1" xmlns="http://www.w3.org/2000/svg" xmlns:xlink="http://www.w3.org/1999/xlink">
    <title>Group 2</title>
    <g id="Page-1" stroke="none" stroke-width="1" fill="none" fill-rule="evenodd">
        <g id="Group-2" fill="#6A41FB">
            <polygon id="Triangle" fill-opacity="0.57" points="943.5 119 1059 294 941.109375 294 828 294"></polygon>
            <path d="M1159.208,283.98 C1159.208,279.638 1156.202,275.296 1151.192,275.296 L1149.856,275.296 C1146.516,275.63 1143.51,275.964 1140.504,275.964 C1114.97304,275.964 1113.82087,258.962999 1113.785,233.763025 L1113.784,232.21 C1113.784,207.494 1114.786,173.092 1114.786,160.4 L1114.78674,159.755314 C1114.8003,155.990684 1115.06241,155.39 1120.13,155.39 L1149.522,155.39 C1155.868,155.39 1158.874,151.048 1158.874,146.706 C1158.874,142.364 1155.868,138.022 1149.522,138.022 L1119.08061,138.021295 C1115.45469,138.010007 1114.8115,137.818112 1114.78676,134.555911 L1114.78679,134.316286 C1114.81245,133.286014 1115.454,107.43428 1115.454,97.942 C1115.454,90.928 1110.778,87.588 1105.768,87.588 C1101.092,87.588 1096.082,90.928 1096.082,97.274 L1096.082,105.624 C1096.082,117.314 1095.748,133.346 1095.748,134.682 C1095.748,137.616429 1095.11143,138.00458 1092.28476,138.0214 L1072.702,138.022 C1066.356,138.022 1063.35,142.364 1063.35,146.706 C1063.35,151.048 1066.356,155.39 1072.702,155.39 L1092.408,155.39 C1094.746,155.39 1095.748,156.058 1095.748,159.398 L1095.748,164.742 C1095.748,180.777374 1095.10672,220.219567 1095.08081,241.913127 L1095.08034,244.139347 C1095.0971,259.369678 1095.93504,294.334 1137.832,294.334 C1151.192,294.334 1159.208,292.664 1159.208,283.98 Z M1267.424,294.334 C1311.846,294.334 1345.246,262.27 1345.246,214.174 C1345.246,167.748 1311.846,134.348 1267.424,134.348 C1223.002,134.348 1190.27,167.748 1190.27,214.174 C1190.27,262.27 1223.002,294.334 1267.424,294.334 Z M1267.424,276.298 C1235.36,276.298 1209.642,251.582 1209.642,214.174 C1209.642,176.432 1235.36,151.716 1267.424,151.716 C1299.488,151.716 1325.54,176.432 1325.54,214.174 C1325.54,251.582 1299.488,276.298 1267.424,276.298 Z M1512.914,292.998 C1517.924,292.998 1522.6,289.992 1522.6,283.312 C1522.934,274.294 1522.934,260.6 1522.934,246.572 C1522.934,223.526 1522.6,198.81 1522.266,188.122 C1520.93,152.718 1494.21,134.682 1466.488,134.682 C1448.118,134.682 1429.08,142.698 1417.056,158.73 C1416.722,159.398 1416.054,159.732 1415.72,159.732 C1415.72,159.732 1415.386,159.398 1415.386,158.396 L1415.386,145.704 C1415.386,139.358 1410.71,136.686 1406.034,136.686 C1400.69,136.686 1395.346,140.026 1395.346,145.37 L1395.346,145.704 C1395.68,160.4 1396.014,177.768 1396.014,196.472 C1396.014,224.862 1395.346,255.924 1394.678,282.978 L1394.678,283.312 C1394.678,289.324 1400.022,292.664 1405.032,292.664 C1410.042,292.664 1414.718,289.658 1414.718,283.646 L1414.718,283.312 C1414.41916,272.553684 1414.3877,262.597524 1414.38439,252.96504 L1414.38467,247.79173 C1414.40135,225.583122 1414.72668,207.893065 1415.052,197.808 C1415.72,171.088 1442.106,153.052 1465.486,153.052 C1484.19,153.052 1501.224,164.408 1502.894,191.462 C1503.228,196.806 1503.562,208.496 1503.562,222.19 C1503.562,243.232 1503.228,269.284 1502.894,283.312 L1502.894,283.646 C1502.894,289.658 1507.904,292.998 1512.914,292.998 Z M1643.508,294.334 C1685.592,294.334 1708.972,268.95 1708.972,261.268 C1708.972,255.924 1703.962,251.582 1698.952,251.582 C1696.614,251.582 1694.276,252.584 1692.272,254.588 C1681.918,266.278 1668.224,276.632 1643.842,276.632 C1611.778,276.632 1587.73,254.254 1587.73,217.848 C1587.73,213.172 1588.398,211.836 1591.738,211.836 C1598.86556,211.836 1625.79154,212.150261 1650.26314,212.169116 L1657.51887,212.169153 C1667.91277,212.163789 1677.28755,212.124455 1683.922,211.836 C1700.622,211.502 1708.304,202.15 1708.304,189.458 C1708.304,170.42 1688.264,134.682 1642.506,134.682 C1603.094,134.682 1568.024,166.746 1568.024,215.51 C1568.024,262.604 1601.09,294.334 1643.508,294.334 Z M1639.19746,195.803279 L1625.55698,195.803279 C1593.0581,195.791976 1590.402,195.6036 1590.402,192.464 C1590.402,180.106 1610.776,151.382 1642.84,151.382 C1676.908,151.382 1688.598,176.432 1688.598,186.118 C1688.598,191.462 1685.592,195.136 1677.576,195.47 C1669.48024,195.759134 1654.37621,195.797973 1639.19746,195.803279 L1639.19746,195.803279 Z" id="tone" fill-rule="nonzero"></path>
            <path d="M43.42,379.17 C53.44,379.17 53.44,371.488 53.44,357.794 C53.44,334.46744 53.1257394,282.857426 53.1068838,271.856167 L53.106844,269.746106 C53.1138072,266.672749 53.1782162,265.61 53.774,265.61 C54.442,265.61 55.444,267.28 57.448,269.618 C70.808,285.984 90.514,294 110.22,294 C153.64,294 186.038,262.604 186.038,214.842 C186.038,167.748 153.64,135.016 110.22,135.016 C87.508,135.016 68.136,145.036 56.446,160.734 C55.11,162.404 54.442,163.406 53.774,163.406 C53.106,163.406 53.106,162.07 53.106,160.066 C53.106,157.06 53.44,151.048 53.44,147.374 C53.44,140.694 48.096,137.354 43.086,137.354 C38.076,137.354 33.4,140.694 33.4,148.042 L33.4,148.376 C33.734,165.076 34.068,201.482 34.068,241.228 C34.068,289.324 33.734,341.762 33.4,367.48 L33.4,367.814 C33.4,375.496 38.41,379.17 43.42,379.17 Z M109.552,276.298 C77.822,276.298 52.772,252.25 52.772,214.842 C52.772,177.434 77.822,152.718 109.552,152.718 C141.282,152.718 166.332,177.434 166.332,214.842 C166.332,252.25 141.282,276.298 109.552,276.298 Z M245.49,292.664 C250.5,292.664 255.176,289.658 255.176,283.646 L255.176,283.312 C254.886533,269.128133 254.847938,255.446009 254.842792,243.135313 L254.842847,229.978304 C254.848211,214.450033 254.887545,201.967818 255.176,194.468 C255.844,168.75 282.23,153.72 305.944,153.72 C312.624,153.72 316.298,148.71 316.298,144.034 C316.298,139.358 312.958,135.016 305.944,135.016 C301.936,135.016 271.876,137.02 257.18,157.394 C256.846,158.062 256.178,158.73 255.844,158.73 C255.844,158.73 255.51,158.062 255.51,157.06 C255.51,152.384 255.844,150.046 255.844,145.036 C255.844,138.69 250.834,135.684 245.824,135.684 C240.814,135.684 235.47,139.024 235.47,144.368 L235.47,144.702 C235.804,159.398 236.138,177.1 236.138,195.804 C236.138,224.528 235.47,255.924 234.802,282.978 L234.802,283.312 C234.802,289.324 240.146,292.664 245.49,292.664 Z M370.406,77.568 C378.756,77.568 387.106,71.556 387.106,61.202 C387.106,48.51 375.75,45.838 370.74,45.838 C364.06,45.838 354.708,50.848 354.708,61.202 C354.708,63.206 354.708,77.568 370.406,77.568 Z M370.74,292.33 C376.084,292.33 381.428,288.99 381.428,282.31 L381.428,281.976 C381.100423,263.631692 380.772846,239.504392 380.760368,216.211177 L380.760989,212.125154 C380.781095,184.401555 381.104547,158.287011 381.428,144.702 L381.428,144.368 C381.428,138.356 376.084,135.35 371.074,135.35 C365.73,135.35 360.386,138.69 360.386,144.702 L360.386,145.036 C360.674157,153.104392 360.713708,164.404661 360.719136,177.435423 L360.72,183.78 C360.72,214.842 360.386,253.92 360.386,282.31 C360.386,288.99 365.73,292.33 370.74,292.33 Z M486.972,294.668 C524.38,294.668 540.078,270.62 540.078,251.582 C540.078,236.218 531.06,220.52 510.352,209.832 C499.998,204.488 484.634,198.142 475.282,193.8 C464.26,188.456 458.916,180.106 458.916,172.09 C458.916,161.068 468.602,151.048 485.636,151.048 C499.998,151.048 508.348,156.392 513.692,162.738 C516.364,166.078 519.704,167.414 522.376,167.414 C527.72,167.414 532.062,163.072 532.062,157.728 C532.062,148.71 514.026,134.348 485.636,134.348 C456.244,134.348 440.212,153.052 440.212,172.758 C440.212,187.12 448.896,201.816 467.266,209.832 C506.01,227.2 520.372,233.88 520.372,251.582 C520.372,265.944 506.01,276.632 486.972,276.632 C470.606,276.632 458.582,270.286 451.234,259.932 C448.896,256.926 445.89,255.59 442.884,255.59 C437.874,255.59 432.864,259.598 432.864,265.276 C432.864,274.628 452.236,294.668 486.972,294.668 Z M793.918,293.332 C798.594,293.332 803.604,289.658 803.604,282.31 L803.604,267.28 C803.604,241.228 803.27,198.81 802.936,184.782 C801.934,152.05 778.22,134.682 752.502,134.682 C733.13,134.682 713.09,144.368 700.398,164.074 C693.718,144.034 675.014,134.682 655.642,134.682 C638.608,134.682 620.572,142.03 609.884,155.724 C609.55,156.392 609.216,156.726 608.882,156.726 C608.587294,156.726 608.552623,156.205931 608.548544,155.165792 L608.548,145.704 C608.548,139.358 603.872,136.352 599.196,136.352 C594.186,136.352 589.51,139.358 589.51,145.37 L589.51,145.704 C589.801179,156.477641 589.83851,169.78977 589.843296,183.869954 L589.844,190.126 C589.844,221.188 589.51,256.258 588.842,282.644 L588.842,282.978 C588.842,289.658 593.852,293.332 598.862,293.332 C603.538,293.332 608.214,289.992 608.214,283.312 L608.214,282.978 C607.88,267.948 607.546,242.898 607.546,222.524 C607.546,209.832 607.546,198.81 607.88,193.132 C608.882,168.416 631.928,151.382 652.97,151.382 C669.336,151.382 684.7,162.07 686.036,188.122 C686.37,193.8 686.37,207.494 686.37,223.192 C686.37,244.568 686.37,269.618 686.036,282.978 L686.036,283.312 C686.036,289.658 690.712,292.664 695.388,292.664 C700.398,292.664 705.408,289.324 705.408,283.312 L705.408,282.978 C705.080549,265.950549 704.753098,241.539399 704.740383,221.389771 L704.740728,215.471574 C704.745612,205.141224 704.783296,196.403963 705.074,191.462 C706.076,168.75 729.456,152.384 750.832,152.384 C767.198,152.384 782.562,162.404 783.898,188.122 C784.232,193.8 784.232,207.494 784.232,223.192 C784.232,244.568 784.232,269.618 783.898,282.978 L783.898,283.312 C783.898,289.658 788.908,293.332 793.918,293.332 Z" id="prism" fill-rule="nonzero"></path>
            <polygon id="Triangle" points="943.5 119 1059 294 943.5 294"></polygon>
        </g>
    </g>
</svg>