<?xml version="1.0" encoding="UTF-8"?>
<svg width="1676px" height="335px" viewBox="0 0 1676 335" version="1.1" xmlns="http://www.w3.org/2000/svg" xmlns:xlink="http://www.w3.org/1999/xlink">
    <title>Group 2</title>
    <g id="Page-1" stroke="none" stroke-width="1" fill="none" fill-rule="evenodd">
        <g id="Group-2" fill="#6A41FB">
            <polygon id="Triangle" fill-opacity="0.57" points="910.5 74 1026 249 908.109375 249 795 249"></polygon>
            <path d="M1126.208,238.98 C1126.208,234.638 1123.202,230.296 1118.192,230.296 L1116.856,230.296 C1113.516,230.63 1110.51,230.964 1107.504,230.964 C1081.97304,230.964 1080.82087,213.962999 1080.785,188.763025 L1080.784,187.21 C1080.784,162.494 1081.786,128.092 1081.786,115.4 L1081.78674,114.755314 C1081.8003,110.990684 1082.06241,110.39 1087.13,110.39 L1116.522,110.39 C1122.868,110.39 1125.874,106.048 1125.874,101.706 C1125.874,97.364 1122.868,93.022 1116.522,93.022 L1086.08061,93.0212945 C1082.45469,93.0100066 1081.8115,92.8181124 1081.78676,89.5559115 L1081.78679,89.316286 C1081.81245,88.2860136 1082.454,62.43428 1082.454,52.942 C1082.454,45.928 1077.778,42.588 1072.768,42.588 C1068.092,42.588 1063.082,45.928 1063.082,52.274 L1063.082,60.624 C1063.082,72.314 1062.748,88.346 1062.748,89.682 C1062.748,92.6164286 1062.11143,93.0045805 1059.28476,93.0214004 L1039.702,93.022 C1033.356,93.022 1030.35,97.364 1030.35,101.706 C1030.35,106.048 1033.356,110.39 1039.702,110.39 L1059.408,110.39 C1061.746,110.39 1062.748,111.058 1062.748,114.398 L1062.748,119.742 C1062.748,135.777374 1062.10672,175.219567 1062.08081,196.913127 L1062.08034,199.139347 C1062.0971,214.369678 1062.93504,249.334 1104.832,249.334 C1118.192,249.334 1126.208,247.664 1126.208,238.98 Z M1234.424,249.334 C1278.846,249.334 1312.246,217.27 1312.246,169.174 C1312.246,122.748 1278.846,89.348 1234.424,89.348 C1190.002,89.348 1157.27,122.748 1157.27,169.174 C1157.27,217.27 1190.002,249.334 1234.424,249.334 Z M1234.424,231.298 C1202.36,231.298 1176.642,206.582 1176.642,169.174 C1176.642,131.432 1202.36,106.716 1234.424,106.716 C1266.488,106.716 1292.54,131.432 1292.54,169.174 C1292.54,206.582 1266.488,231.298 1234.424,231.298 Z M1479.914,247.998 C1484.924,247.998 1489.6,244.992 1489.6,238.312 C1489.934,229.294 1489.934,215.6 1489.934,201.572 C1489.934,178.526 1489.6,153.81 1489.266,143.122 C1487.93,107.718 1461.21,89.682 1433.488,89.682 C1415.118,89.682 1396.08,97.698 1384.056,113.73 C1383.722,114.398 1383.054,114.732 1382.72,114.732 C1382.72,114.732 1382.386,114.398 1382.386,113.396 L1382.386,100.704 C1382.386,94.358 1377.71,91.686 1373.034,91.686 C1367.69,91.686 1362.346,95.026 1362.346,100.37 L1362.346,100.704 C1362.68,115.4 1363.014,132.768 1363.014,151.472 C1363.014,179.862 1362.346,210.924 1361.678,237.978 L1361.678,238.312 C1361.678,244.324 1367.022,247.664 1372.032,247.664 C1377.042,247.664 1381.718,244.658 1381.718,238.646 L1381.718,238.312 C1381.41916,227.553684 1381.3877,217.597524 1381.38439,207.96504 L1381.38467,202.79173 C1381.40135,180.583122 1381.72668,162.893065 1382.052,152.808 C1382.72,126.088 1409.106,108.052 1432.486,108.052 C1451.19,108.052 1468.224,119.408 1469.894,146.462 C1470.228,151.806 1470.562,163.496 1470.562,177.19 C1470.562,198.232 1470.228,224.284 1469.894,238.312 L1469.894,238.646 C1469.894,244.658 1474.904,247.998 1479.914,247.998 Z M1610.508,249.334 C1652.592,249.334 1675.972,223.95 1675.972,216.268 C1675.972,210.924 1670.962,206.582 1665.952,206.582 C1663.614,206.582 1661.276,207.584 1659.272,209.588 C1648.918,221.278 1635.224,231.632 1610.842,231.632 C1578.778,231.632 1554.73,209.254 1554.73,172.848 C1554.73,168.172 1555.398,166.836 1558.738,166.836 C1565.86556,166.836 1592.79154,167.150261 1617.26314,167.169116 L1624.51887,167.169153 C1634.91277,167.163789 1644.28755,167.124455 1650.922,166.836 C1667.622,166.502 1675.304,157.15 1675.304,144.458 C1675.304,125.42 1655.264,89.682 1609.506,89.682 C1570.094,89.682 1535.024,121.746 1535.024,170.51 C1535.024,217.604 1568.09,249.334 1610.508,249.334 Z M1606.19746,150.803279 L1592.55698,150.803279 C1560.0581,150.791976 1557.402,150.6036 1557.402,147.464 C1557.402,135.106 1577.776,106.382 1609.84,106.382 C1643.908,106.382 1655.598,131.432 1655.598,141.118 C1655.598,146.462 1652.592,150.136 1644.576,150.47 C1636.48024,150.759134 1621.37621,150.797973 1606.19746,150.803279 L1606.19746,150.803279 Z" id="tone" fill-rule="nonzero"></path>
            <path d="M10.42,334.17 C20.44,334.17 20.44,326.488 20.44,312.794 C20.44,289.46744 20.1257394,237.857426 20.1068838,226.856167 L20.106844,224.746106 C20.1138072,221.672749 20.1782162,220.61 20.774,220.61 C21.442,220.61 22.444,222.28 24.448,224.618 C37.808,240.984 57.514,249 77.22,249 C120.64,249 153.038,217.604 153.038,169.842 C153.038,122.748 120.64,90.016 77.22,90.016 C54.508,90.016 35.136,100.036 23.446,115.734 C22.11,117.404 21.442,118.406 20.774,118.406 C20.106,118.406 20.106,117.07 20.106,115.066 C20.106,112.06 20.44,106.048 20.44,102.374 C20.44,95.694 15.096,92.354 10.086,92.354 C5.076,92.354 0.4,95.694 0.4,103.042 L0.4,103.376 C0.734,120.076 1.068,156.482 1.068,196.228 C1.068,244.324 0.734,296.762 0.4,322.48 L0.4,322.814 C0.4,330.496 5.41,334.17 10.42,334.17 Z M76.552,231.298 C44.822,231.298 19.772,207.25 19.772,169.842 C19.772,132.434 44.822,107.718 76.552,107.718 C108.282,107.718 133.332,132.434 133.332,169.842 C133.332,207.25 108.282,231.298 76.552,231.298 Z M212.49,247.664 C217.5,247.664 222.176,244.658 222.176,238.646 L222.176,238.312 C221.886533,224.128133 221.847938,210.446009 221.842792,198.135313 L221.842847,184.978304 C221.848211,169.450033 221.887545,156.967818 222.176,149.468 C222.844,123.75 249.23,108.72 272.944,108.72 C279.624,108.72 283.298,103.71 283.298,99.034 C283.298,94.358 279.958,90.016 272.944,90.016 C268.936,90.016 238.876,92.02 224.18,112.394 C223.846,113.062 223.178,113.73 222.844,113.73 C222.844,113.73 222.51,113.062 222.51,112.06 C222.51,107.384 222.844,105.046 222.844,100.036 C222.844,93.69 217.834,90.684 212.824,90.684 C207.814,90.684 202.47,94.024 202.47,99.368 L202.47,99.702 C202.804,114.398 203.138,132.1 203.138,150.804 C203.138,179.528 202.47,210.924 201.802,237.978 L201.802,238.312 C201.802,244.324 207.146,247.664 212.49,247.664 Z M337.406,32.568 C345.756,32.568 354.106,26.556 354.106,16.202 C354.106,3.51 342.75,0.838 337.74,0.838 C331.06,0.838 321.708,5.848 321.708,16.202 C321.708,18.206 321.708,32.568 337.406,32.568 Z M337.74,247.33 C343.084,247.33 348.428,243.99 348.428,237.31 L348.428,236.976 C348.100423,218.631692 347.772846,194.504392 347.760368,171.211177 L347.760989,167.125154 C347.781095,139.401555 348.104547,113.287011 348.428,99.702 L348.428,99.368 C348.428,93.356 343.084,90.35 338.074,90.35 C332.73,90.35 327.386,93.69 327.386,99.702 L327.386,100.036 C327.674157,108.104392 327.713708,119.404661 327.719136,132.435423 L327.72,138.78 C327.72,169.842 327.386,208.92 327.386,237.31 C327.386,243.99 332.73,247.33 337.74,247.33 Z M453.972,249.668 C491.38,249.668 507.078,225.62 507.078,206.582 C507.078,191.218 498.06,175.52 477.352,164.832 C466.998,159.488 451.634,153.142 442.282,148.8 C431.26,143.456 425.916,135.106 425.916,127.09 C425.916,116.068 435.602,106.048 452.636,106.048 C466.998,106.048 475.348,111.392 480.692,117.738 C483.364,121.078 486.704,122.414 489.376,122.414 C494.72,122.414 499.062,118.072 499.062,112.728 C499.062,103.71 481.026,89.348 452.636,89.348 C423.244,89.348 407.212,108.052 407.212,127.758 C407.212,142.12 415.896,156.816 434.266,164.832 C473.01,182.2 487.372,188.88 487.372,206.582 C487.372,220.944 473.01,231.632 453.972,231.632 C437.606,231.632 425.582,225.286 418.234,214.932 C415.896,211.926 412.89,210.59 409.884,210.59 C404.874,210.59 399.864,214.598 399.864,220.276 C399.864,229.628 419.236,249.668 453.972,249.668 Z M760.918,248.332 C765.594,248.332 770.604,244.658 770.604,237.31 L770.604,222.28 C770.604,196.228 770.27,153.81 769.936,139.782 C768.934,107.05 745.22,89.682 719.502,89.682 C700.13,89.682 680.09,99.368 667.398,119.074 C660.718,99.034 642.014,89.682 622.642,89.682 C605.608,89.682 587.572,97.03 576.884,110.724 C576.55,111.392 576.216,111.726 575.882,111.726 C575.587294,111.726 575.552623,111.205931 575.548544,110.165792 L575.548,100.704 C575.548,94.358 570.872,91.352 566.196,91.352 C561.186,91.352 556.51,94.358 556.51,100.37 L556.51,100.704 C556.801179,111.477641 556.83851,124.78977 556.843296,138.869954 L556.844,145.126 C556.844,176.188 556.51,211.258 555.842,237.644 L555.842,237.978 C555.842,244.658 560.852,248.332 565.862,248.332 C570.538,248.332 575.214,244.992 575.214,238.312 L575.214,237.978 C574.88,222.948 574.546,197.898 574.546,177.524 C574.546,164.832 574.546,153.81 574.88,148.132 C575.882,123.416 598.928,106.382 619.97,106.382 C636.336,106.382 651.7,117.07 653.036,143.122 C653.37,148.8 653.37,162.494 653.37,178.192 C653.37,199.568 653.37,224.618 653.036,237.978 L653.036,238.312 C653.036,244.658 657.712,247.664 662.388,247.664 C667.398,247.664 672.408,244.324 672.408,238.312 L672.408,237.978 C672.080549,220.950549 671.753098,196.539399 671.740383,176.389771 L671.740728,170.471574 C671.745612,160.141224 671.783296,151.403963 672.074,146.462 C673.076,123.75 696.456,107.384 717.832,107.384 C734.198,107.384 749.562,117.404 750.898,143.122 C751.232,148.8 751.232,162.494 751.232,178.192 C751.232,199.568 751.232,224.618 750.898,237.978 L750.898,238.312 C750.898,244.658 755.908,248.332 760.918,248.332 Z" id="prism" fill-opacity="0.57" fill-rule="nonzero"></path>
            <polygon id="Triangle" points="910.5 74 1026 249 910.5 249"></polygon>
        </g>
    </g>
</svg>