<svg width="934" height="450" viewBox="0 0 934 450" fill="none" xmlns="http://www.w3.org/2000/svg">
<path d="M202.5 329.4C202.5 335.1 207 338.4 211.5 338.4C215.7 338.4 220.2 335.1 220.2 328.5V315C220.2 291.6 219.9 253.5 219.6 240.9C218.7 211.5 197.4 195.9 174.3 195.9C156.9 195.9 138.9 204.6 127.5 222.3C121.5 204.3 104.7 195.9 87.3 195.9C72 195.9 55.8 202.5 46.2 214.8C45.9 215.4 45.6 215.7 45.3 215.7C45 215.7 45 215.1 45 213.9V205.8C45 200.1 40.8 197.4 36.6 197.4C32.1 197.4 27.9 200.1 27.9 205.5V205.8C28.2 216.9 28.2 231 28.2 245.7C28.2 273.6 27.9 305.1 27.3 328.8V329.1C27.3 335.1 31.8 338.4 36.3 338.4C40.5 338.4 44.7 335.4 44.7 329.4V329.1C44.4 315.6 44.1 293.1 44.1 274.8C44.1 263.4 44.1 253.5 44.4 248.4C45.3 226.2 66 210.9 84.9 210.9C99.6 210.9 113.4 220.5 114.6 243.9C114.9 249 114.9 261.3 114.9 275.4C114.9 294.6 114.9 317.1 114.6 329.1V329.4C114.6 335.1 118.8 337.8 123 337.8C127.5 337.8 132 334.8 132 329.4V329.1C131.7 313.5 131.4 291 131.4 272.7C131.4 261.6 131.4 252 131.7 246.9C132.6 226.5 153.6 211.8 172.8 211.8C187.5 211.8 201.3 220.8 202.5 243.9C202.8 249 202.8 261.3 202.8 275.4C202.8 294.6 202.8 317.1 202.5 329.1V329.4ZM331.301 339.3C371.201 339.3 401.201 310.5 401.201 267.3C401.201 225.6 371.201 195.6 331.301 195.6C291.401 195.6 262.001 225.6 262.001 267.3C262.001 310.5 291.401 339.3 331.301 339.3ZM331.301 323.1C302.501 323.1 279.401 300.9 279.401 267.3C279.401 233.4 302.501 211.2 331.301 211.2C360.101 211.2 383.501 233.4 383.501 267.3C383.501 300.9 360.101 323.1 331.301 323.1ZM529.38 300.9C529.38 287.1 521.28 273 502.68 263.4C493.38 258.6 479.58 252.9 471.18 249C461.28 244.2 456.48 236.7 456.48 229.5C456.48 219.6 465.18 210.6 480.48 210.6C493.38 210.6 500.88 215.4 505.68 221.1C508.08 224.1 511.08 225.3 513.48 225.3C518.28 225.3 522.18 221.4 522.18 216.6C522.18 208.5 505.98 195.6 480.48 195.6C454.08 195.6 439.68 212.4 439.68 230.1C439.68 243 447.48 256.2 463.98 263.4C498.78 279 511.68 285 511.68 300.9C511.68 313.8 498.78 323.4 481.68 323.4C466.98 323.4 456.18 317.7 449.58 308.4C447.48 305.7 444.78 304.5 442.08 304.5C437.58 304.5 433.08 308.1 433.08 313.2C433.08 321.6 450.48 339.6 481.68 339.6C515.28 339.6 529.38 318 529.38 300.9ZM659.801 313.8C660.401 313.8 660.401 314.1 660.701 315C664.901 331.5 679.901 335.7 681.701 335.7C687.101 335.7 690.701 330.6 690.701 326.4C690.701 324 689.801 321.6 687.401 320.4C675.401 314.1 670.601 308.1 670.601 283.2C670.601 273.3 671.201 259.8 672.101 249.9C672.401 246.9 672.401 244.2 672.401 241.5C672.401 207.9 653.501 195.6 625.601 195.6C599.801 195.6 574.601 208.5 574.601 219.9C574.601 224.7 578.501 228 583.001 228C585.101 228 587.501 227.1 589.301 225C596.201 217.5 608.201 210.6 624.401 210.6C648.701 210.6 655.601 223.5 655.601 240C655.601 241.5 655.301 243.3 655.301 244.8C655.301 246.9 654.101 247.8 650.501 248.4C637.901 250.5 613.601 255 595.001 260.7C572.801 267.6 562.901 282.9 562.901 297.9C562.901 318.6 581.201 339.3 611.501 339.3C629.801 339.3 649.901 330 658.901 314.7C659.201 314.1 659.801 313.8 659.801 313.8ZM611.201 323.4C591.101 323.4 579.101 310.8 579.101 298.2C579.101 277.2 604.001 271.2 651.101 263.7H652.001C654.101 263.7 655.001 264.6 655.001 267C655.001 270.6 654.701 273.9 654.701 277.2C654.701 302.7 638.801 323.4 611.201 323.4ZM755.381 129.9C755.381 118.5 745.181 116.1 740.681 116.1C734.681 116.1 726.281 120.6 726.281 129.9C726.281 131.7 726.281 144.6 740.381 144.6C747.881 144.6 755.381 139.2 755.381 129.9ZM750.281 328.2C749.981 311.4 749.681 289.2 749.681 267.9C749.681 242.1 749.981 217.5 750.281 204.9V204.6C750.281 199.2 745.481 196.5 740.981 196.5C736.181 196.5 731.381 199.5 731.381 204.9V205.2C731.681 213.6 731.681 225.9 731.681 240C731.681 267.9 731.381 303 731.381 328.5C731.381 334.5 736.181 337.5 740.681 337.5C745.481 337.5 750.281 334.5 750.281 328.5V328.2ZM922.962 310.2C922.962 305.1 918.462 300.9 913.362 300.9C910.662 300.9 907.962 302.1 905.562 305.4C897.462 316.8 882.762 322.5 867.762 322.5C833.862 322.5 815.262 294.9 815.262 266.7C815.262 234.6 837.162 210.3 866.562 210.3C879.462 210.3 892.362 215.1 900.162 225C902.562 228 905.262 229.2 907.962 229.2C912.462 229.2 916.662 225.3 916.662 220.2C916.662 211.2 896.862 194.7 866.562 194.7C825.762 194.7 797.562 228.3 797.562 268.2C797.562 303.9 821.862 339 868.062 339C900.462 339 922.962 318.9 922.962 310.2Z" fill="#AA93FD"/>
<path d="M317.5 186.64C324.616 182.531 333.384 182.531 340.5 186.64L393.71 217.36C400.826 221.469 405.21 229.062 405.21 237.279V298.721C405.21 306.938 400.826 314.531 393.71 318.64L340.5 349.36C333.384 353.469 324.616 353.469 317.5 349.36L264.29 318.64C257.174 314.531 252.79 306.938 252.79 298.721V237.279C252.79 229.062 257.174 221.469 264.29 217.36L317.5 186.64Z" fill="#AA93FD"/>
<path d="M393.71 217.36L336.5 184.33C333.167 182.406 329 184.811 329 188.66V347.34C329 351.189 333.167 353.594 336.5 351.67L393.71 318.64C400.826 314.531 405.21 306.938 405.21 298.721V237.279C405.21 229.062 400.826 221.469 393.71 217.36Z" fill="black" fill-opacity="0.26"/>
</svg>
